PathFileType	4	(X/Y/Z)	C:\Users\dbl\Desktop\20210112(1)\20210112\bx_y_0_901.trc
DataRate	CameraRate	NumFrames	NumMarkers	Units	OrigDataRate	OrigDataStartFrame	OrigNumFrames
50.00	50.00	       7	43	mm	50.00	229	       457
Frame#	Time	Top.Head			R.Acromium			L.Acromium			Sternum			R.ASIS			L.ASIS			V.Sacral			R.Thigh.Upper			R.Thigh.Front			R.Thigh.Rear			R.Knee.Lat			R.Knee.Med			R.Shank.Upper			R.Shank.Front			R.Shank.Rear			R.Ankle.Lat			R.Midfoot.Lat			R.Toe.Lat			R.Toe.Tip			R.Toe.Med			R.Ankle.Med			R.Midfoot.Sup			R.Heel			L.Thigh.Upper			L.Thigh.Front			L.Thigh.Rear			L.Knee.Lat			L.Knee.Med			L.Shank.Upper			L.Shank.Front			L.Shank.Rear			L.Ankle.Lat			L.Midfoot.Lat			L.Toe.Lat			L.Toe.Tip			L.Toe.Med			L.Ankle.Med			L.Midfoot.Sup			L.Heel			origin1 front left			origin2 front right			origin 3 back right			origin 4 back leftt			
		X1	Y1	Z1	X2	Y2	Z2	X3	Y3	Z3	X4	Y4	Z4	X5	Y5	Z5	X6	Y6	Z6	X7	Y7	Z7	X8	Y8	Z8	X9	Y9	Z9	X10	Y10	Z10	X11	Y11	Z11	X12	Y12	Z12	X13	Y13	Z13	X14	Y14	Z14	X15	Y15	Z15	X16	Y16	Z16	X17	Y17	Z17	X18	Y18	Z18	X19	Y19	Z19	X20	Y20	Z20	X21	Y21	Z21	X22	Y22	Z22	X23	Y23	Z23	X24	Y24	Z24	X25	Y25	Z25	X26	Y26	Z26	X27	Y27	Z27	X28	Y28	Z28	X29	Y29	Z29	X30	Y30	Z30	X31	Y31	Z31	X32	Y32	Z32	X33	Y33	Z33	X34	Y34	Z34	X35	Y35	Z35	X36	Y36	Z36	X37	Y37	Z37	X38	Y38	Z38	X39	Y39	Z39	X40	Y40	Z40	X41	Y41	Z41	X42	Y42	Z42	X43	Y43	Z43	

229	4.560	-94.61609	99.36559	1091.48486	-375.97479	-85.98077	1006.04999	-369.66507	273.72192	1051.36377	-392.48294	68.79781	1142.63953	-784.06281	-7.83544	945.30048	-744.35693	189.25014	985.77466	-920.69250	82.37206	1103.14380	-850.86877	-79.84631	841.88147	-768.12000	-12.16265	793.75952	-858.43042	-63.28146	697.94342	-828.22131	-36.86997	601.48712	-802.00641	73.59538	562.35071	-824.42804	-31.82093	555.50903	-764.00977	14.10334	523.08905	-846.78040	-43.75568	469.54715	-773.83899	-11.12397	201.29659	-664.00879	-68.57552	160.73227	-622.13708	-79.41688	156.90944	-561.01447	-35.05749	163.29021	-605.37018	21.16547	166.79742	-729.39819	71.11827	220.56114	-677.81561	53.78640	162.26689	-798.85614	49.78104	172.68680	-844.81531	279.91891	859.28223	-774.21545	214.00908	794.57672	-869.70691	281.36841	724.80542	-859.12573	249.33679	615.46851	-799.89105	143.54955	562.73407	-842.15997	245.12393	560.15814	-775.43439	206.21376	532.60120	-860.89233	256.22922	481.40906	-777.75415	225.79250	200.09474	-667.49084	300.17700	158.52081	-629.74469	308.00613	162.20955	-562.34479	257.86557	166.16795	-597.02704	222.68436	173.25241	-721.77753	157.17082	221.10172	-677.85852	175.94225	161.79715	-800.47498	175.61909	180.91365	-528.06567	303.92398	146.30408	-518.00879	-72.54176	142.72139	-875.96991	-78.66357	141.38771	-882.68396	296.11002	144.53740	
230	4.580	-94.87683	99.14951	1097.68750	-376.27649	-85.18837	1009.64282	-369.79248	273.41815	1055.33765	-393.25317	69.16216	1144.00391	-783.14594	-7.58452	946.19165	-743.37610	189.15038	986.38782	-921.11188	82.17582	1103.12488	-850.63977	-79.63158	841.89746	-767.79041	-12.18280	793.90967	-858.27448	-63.25241	698.11353	-828.14233	-36.95970	601.65222	-801.85034	73.51147	562.35565	-824.31146	-31.87112	555.57623	-763.95813	14.03111	523.10638	-846.74316	-43.68529	469.61435	-773.87415	-11.13867	201.27684	-664.00647	-68.59460	160.74400	-622.16449	-79.45065	156.90475	-561.01678	-35.07668	163.28419	-605.38965	21.15554	166.81195	-729.39240	71.11588	220.54259	-677.87500	53.65606	162.23000	-798.84070	49.76938	172.66219	-844.39630	279.74261	859.40826	-773.71936	213.81816	794.84760	-869.23218	281.25671	725.00732	-858.82220	249.38019	615.70789	-799.73395	143.51746	562.85229	-841.95142	245.05334	560.26337	-775.24023	206.13654	532.56250	-860.70032	256.16727	481.62070	-777.74384	225.78629	200.09657	-667.50055	300.19925	158.46657	-629.73730	308.00443	162.21460	-562.42700	257.83957	166.12183	-597.08411	222.71225	173.31737	-721.51880	157.04320	221.20055	-677.87952	175.92754	161.84314	-800.46136	175.60066	180.92070	-528.07501	303.94876	146.29753	-518.02368	-72.53234	142.74104	-875.96527	-78.68364	141.37497	-882.66510	296.08929	144.54768	
231	4.600	-95.27527	98.88091	1104.53784	-376.62827	-84.33134	1013.34222	-369.91934	273.09695	1059.64624	-394.06396	69.53360	1145.44482	-782.18213	-7.35017	947.15704	-742.37207	189.06744	987.02795	-921.46936	82.03906	1103.05286	-850.43433	-79.45119	841.96674	-767.46851	-12.17055	794.02911	-858.19196	-63.17992	698.22253	-828.09985	-37.00958	601.82281	-801.64954	73.44762	562.38983	-824.32819	-31.87829	555.63843	-763.94708	13.96661	523.09723	-846.80591	-43.59879	469.65668	-773.92633	-11.12529	201.22858	-664.02875	-68.61225	160.72078	-622.17798	-79.50661	156.94153	-561.02057	-35.10770	163.27232	-605.40735	21.12376	166.82532	-729.35919	71.13373	220.56332	-677.92365	53.55744	162.20313	-798.79382	49.77286	172.57623	-844.01660	279.45486	859.49377	-773.16400	213.64050	795.06830	-868.73523	281.08105	725.24207	-858.59271	249.36665	615.93427	-799.62091	143.48279	562.94598	-841.79211	244.88937	560.32220	-775.09393	206.03964	532.51056	-860.51581	256.02319	481.75784	-777.72760	225.76161	200.09831	-667.54041	300.23315	158.44313	-629.72003	307.96948	162.23874	-562.49310	257.83069	166.06732	-597.14404	222.74361	173.37680	-721.37598	156.98738	221.25063	-677.85840	175.95099	161.84073	-800.40033	175.55844	180.92343	-528.08539	303.94855	146.28111	-518.03577	-72.51461	142.75310	-875.95776	-78.70509	141.33646	-882.65790	296.09174	144.56059	
232	4.620	-95.81592	98.58315	1111.97559	-377.01978	-83.43311	1017.18481	-369.99994	272.81940	1064.34814	-394.91541	69.91199	1146.96277	-781.17102	-7.13317	948.19794	-741.34509	189.00189	987.69513	-921.75610	81.98523	1102.90247	-850.26178	-79.31794	842.12952	-767.20935	-12.14170	794.12299	-858.08899	-63.09103	698.28265	-828.06110	-36.99852	601.93689	-801.43451	73.40484	562.44342	-824.43878	-31.82011	555.67114	-763.95435	13.87805	523.08203	-846.92017	-43.51825	469.66489	-773.98230	-11.09808	201.17471	-664.06238	-68.64122	160.67603	-622.17426	-79.57370	157.00165	-561.01886	-35.13505	163.25169	-605.42206	21.06688	166.83690	-729.32495	71.12671	220.58821	-677.93585	53.50229	162.24037	-798.73431	49.78626	172.46915	-843.69598	278.98987	859.53973	-772.65778	213.41537	795.22333	-868.17407	280.87436	725.49719	-858.39490	249.25645	616.12714	-799.54620	143.43958	562.99493	-841.64600	244.67188	560.36713	-774.97223	205.92909	532.46985	-860.37579	255.82867	481.81015	-777.71259	225.73505	200.11493	-667.59741	300.27100	158.43706	-629.71667	307.91751	162.26711	-562.52448	257.83585	166.02287	-597.19110	222.78230	173.40190	-721.30414	156.97939	221.23680	-677.81091	176.00215	161.79884	-800.30621	175.49600	180.91566	-528.08234	303.94482	146.26854	-518.04230	-72.50132	142.75096	-875.95789	-78.72166	141.27625	-882.66382	296.10803	144.56544	
233	4.640	-96.47290	98.26746	1119.97095	-377.40305	-82.58722	1021.29895	-370.00461	272.64853	1069.46948	-395.80777	70.29718	1148.55835	-780.11224	-6.93431	949.31561	-740.29517	188.95425	988.38940	-921.98792	81.98170	1102.69458	-850.09546	-79.19606	842.36029	-767.02783	-12.09910	794.22528	-857.84961	-63.01535	698.34875	-827.97449	-36.92817	601.98560	-801.20605	73.39159	562.52808	-824.56201	-31.71291	555.69757	-763.93744	13.76158	523.07513	-847.01367	-43.44273	469.64206	-774.03461	-11.06533	201.14249	-664.08746	-68.67664	160.63318	-622.16052	-79.62041	157.04984	-561.01135	-35.14838	163.22662	-605.43774	20.99311	166.85025	-729.31000	71.08590	220.59836	-677.90808	53.49340	162.32784	-798.70508	49.80880	172.41338	-843.35590	278.45206	859.58173	-772.23584	213.14114	795.38831	-867.54694	280.67804	725.75665	-858.18915	249.09149	616.29675	-799.48615	143.38370	563.01111	-841.49200	244.45502	560.43671	-774.83563	205.82693	532.47266	-860.26495	255.66562	481.81790	-777.71338	225.70866	200.13663	-667.64221	300.30298	158.43695	-629.72864	307.88733	162.27576	-562.53137	257.84671	165.99500	-597.21906	222.83928	173.37978	-721.24432	156.97482	221.18571	-677.76031	176.05296	161.76590	-800.22955	175.44539	180.90070	-528.05719	303.96094	146.27077	-518.03821	-72.51545	142.75761	-875.97192	-78.72619	141.21674	-882.66846	296.11716	144.55458	
234	4.660	-97.22607	97.92826	1128.52075	-377.68677	-81.96420	1025.90283	-369.96014	272.60452	1074.99414	-396.74109	70.68907	1150.23193	-779.00549	-6.75440	950.51135	-739.22247	188.92508	989.11090	-922.22595	81.99834	1102.48828	-849.86353	-79.03503	842.62170	-766.84912	-12.05030	794.37579	-857.45746	-62.92649	698.48022	-827.82214	-36.78542	602.01379	-800.91241	73.44396	562.65820	-824.61108	-31.60666	555.77209	-763.85028	13.65398	523.07141	-847.03662	-43.35421	469.59564	-774.08203	-11.01767	201.14725	-664.09595	-68.71105	160.60439	-622.14624	-79.61021	157.05406	-561.01031	-35.15296	163.21208	-605.44629	20.91691	166.87317	-729.31067	71.03629	220.60181	-677.85693	53.53331	162.41048	-798.72858	49.84076	172.43359	-842.88123	278.03778	859.67981	-771.82397	212.86330	795.64191	-866.89294	280.54306	726.01520	-857.93750	248.94894	616.46533	-799.42346	143.32243	563.01556	-841.32739	244.31342	560.56201	-774.65704	205.75005	532.52686	-860.14130	255.58746	481.81888	-777.73444	225.67387	200.13736	-667.65686	300.33478	158.44534	-629.74078	307.89920	162.26122	-562.53510	257.85864	165.98460	-597.24176	222.91672	173.32187	-721.16083	156.95714	221.14178	-677.72998	176.08200	161.77017	-800.20337	175.42627	180.88705	-528.01843	303.99155	146.28693	-518.02209	-72.56085	142.78021	-875.98492	-78.72086	141.18814	-882.66199	296.10626	144.52963	
235	4.680	-98.07147	97.56168	1137.59998	-377.78674	-81.71724	1031.16382	-369.94742	272.60599	1080.85522	-397.71561	71.08752	1151.98389	-777.85022	-6.59421	951.78638	-738.12708	188.91492	989.85962	-922.54053	82.06521	1102.32910	-849.49207	-78.81509	842.89844	-766.54980	-12.02732	794.58844	-856.98846	-62.77370	698.69525	-827.60657	-36.56449	602.07098	-800.51630	73.59817	562.82874	-824.52753	-31.54298	555.92590	-763.65179	13.58787	523.07153	-846.96820	-43.22494	469.53564	-774.12054	-10.93777	201.17818	-664.10126	-68.74181	160.58437	-622.13800	-79.54417	157.01480	-561.03357	-35.16738	163.21735	-605.44073	20.85016	166.91476	-729.31195	71.00794	220.60594	-677.80707	53.60754	162.46175	-798.77234	49.88050	172.46437	-842.24579	277.82544	859.85254	-771.31897	212.61574	795.96826	-866.22827	280.50192	726.28259	-857.59283	248.86794	616.66235	-799.33167	143.27141	563.02362	-841.14893	244.28964	560.73169	-774.45398	205.69650	532.59326	-859.98187	255.59149	481.83423	-777.75922	225.62961	200.10318	-667.65540	300.36926	158.45784	-629.73755	307.93402	162.23845	-562.55182	257.86456	165.99098	-597.28198	223.00044	173.26527	-721.06158	156.94585	221.13638	-677.73090	176.08443	161.80183	-800.21295	175.42369	180.88016	-527.99078	304.01218	146.30049	-518.00122	-72.61784	142.81018	-875.97070	-78.72075	141.21306	-882.64490	296.08585	144.50357	
